<?xml version="1.0" encoding="UTF-8" standalone="no"?>
<!DOCTYPE svg PUBLIC "-//W3C//DTD SVG 1.1//EN" "http://www.w3.org/Graphics/SVG/1.1/DTD/svg11.dtd">
<svg width="100%" height="100%" viewBox="0 0 128 96" version="1.1" xmlns="http://www.w3.org/2000/svg" xmlns:xlink="http://www.w3.org/1999/xlink" xml:space="preserve" xmlns:serif="http://www.serif.com/" style="fill-rule:evenodd;clip-rule:evenodd;stroke-linecap:round;stroke-linejoin:round;stroke-miterlimit:1.5;">
    <g id="meter" transform="matrix(1,0,0,1,3.15432,10.4497)">
        <g transform="matrix(1.26353,0,0,1.26353,-4.05243,-2.59265)">
            <circle cx="14.794" cy="14.311" r="11.08" style="fill:white;stroke:black;stroke-width:0.4px;"/>
        </g>
        <g id="meter_1_" transform="matrix(0.911458,0,0,0.911458,0.0566667,0.906175)">
            <path d="M16,31.36C7.53,31.36 0.64,24.47 0.64,16C0.64,7.53 7.53,0.64 16,0.64C24.47,0.64 31.36,7.53 31.36,16C31.36,24.47 24.47,31.36 16,31.36ZM16,1.36C7.927,1.36 1.36,7.927 1.36,16C1.36,24.072 7.927,30.64 16,30.64C24.072,30.64 30.64,24.073 30.64,16C30.64,7.927 24.072,1.36 16,1.36ZM4.922,22.812L4.562,22.189L5.428,21.689L5.788,22.312L4.922,22.812ZM27.079,22.812L23.18,20.561L23.539,19.938L27.438,22.189L27.079,22.812ZM29,16.36L25,16.36L25,15.64L29,15.64L29,16.36ZM4.5,16.36L3,16.36L3,15.64L4.5,15.64L4.5,16.36ZM16.18,16.312L15.82,15.688L27.079,9.188L27.438,9.812L16.18,16.312ZM6.32,10.827L4.562,9.812L4.922,9.188L6.68,10.204L6.32,10.827ZM20.931,8.18L20.308,7.82L22.189,4.562L22.812,4.922L20.931,8.18ZM10.492,7.18L9.188,4.922L9.812,4.562L11.116,6.82L10.492,7.18ZM16.36,6L15.64,6L15.64,3L16.36,3L16.36,6Z" style="fill-rule:nonzero;"/>
        </g>
    </g>
    <g id="scale" transform="matrix(1,0,0,1,49.36,-58.5226)">
        <g transform="matrix(1.23798,0,0,1.23538,-2.55663,-14.4677)">
            <rect x="2.582" y="63.876" width="22.618" height="22.618" style="fill:white;stroke:black;stroke-width:0.4px;"/>
        </g>
        <g id="scale_1_" transform="matrix(0.911458,0,0,0.911458,0.0566667,63.8021)">
            <path d="M31,31.36L1,31.36C0.801,31.36 0.64,31.199 0.64,31L0.64,1C0.64,0.801 0.801,0.64 1,0.64L31,0.64C31.199,0.64 31.36,0.801 31.36,1L31.36,31C31.36,31.199 31.199,31.36 31,31.36ZM1.36,30.64L30.64,30.64L30.64,1.36L1.36,1.36L1.36,30.64ZM11.066,14.453C10.974,14.453 10.882,14.418 10.812,14.348L5.12,8.656C4.979,8.515 4.979,8.288 5.12,8.147C8.025,5.241 11.889,3.64 15.999,3.64C20.108,3.64 23.973,5.241 26.879,8.147C26.946,8.214 26.984,8.306 26.984,8.401C26.984,8.496 26.946,8.588 26.879,8.655L21.187,14.347C21.12,14.415 21.028,14.452 20.932,14.452C20.836,14.452 20.744,14.414 20.677,14.347C19.428,13.097 17.767,12.409 15.999,12.409C14.232,12.409 12.571,13.097 11.321,14.347C11.25,14.418 11.159,14.453 11.066,14.453ZM5.887,8.404L11.073,13.59C12.337,12.442 13.935,11.78 15.64,11.698L15.64,8.056L16.36,8.056L16.36,11.698C18.065,11.78 19.664,12.442 20.926,13.59L26.113,8.404C25.068,7.408 23.901,6.584 22.647,5.945L21.813,7.389L21.19,7.029L21.996,5.634C20.241,4.847 18.334,4.412 16.361,4.365L16.361,6L15.641,6L15.641,4.364C13.667,4.411 11.759,4.846 10.004,5.633L10.812,7.032L10.188,7.392L9.352,5.944C8.098,6.583 6.931,7.408 5.887,8.404Z" style="fill-rule:nonzero;"/>
        </g>
    </g>
    <g id="caliber" transform="matrix(1,0,0,1,41.7155,-11.5596)">
        <g transform="matrix(0.744686,0,0,0.744686,37.4595,-4.11049)">
            <path d="M43.765,54.975L36.265,54.975L33.765,52.475L33.765,49.975L53.765,49.975L56.594,52.803L54.826,54.571L52.73,52.475L43.765,52.475L43.765,54.975Z" style="fill:white;stroke:black;stroke-width:0.67px;"/>
        </g>
        <g transform="matrix(0.744686,-1.8658e-32,1.8658e-32,-0.744686,37.4595,64.4682)">
            <path d="M43.765,54.975L36.265,54.975L33.765,52.475L33.765,49.975L53.765,49.975L56.594,52.803L54.826,54.571L52.73,52.475L43.765,52.475L43.765,54.975Z" style="fill:white;stroke:black;stroke-width:0.67px;"/>
        </g>
        <g transform="matrix(0.625228,0,0,0.761227,30.0815,8.83054)">
            <rect x="63.346" y="19.269" width="7.997" height="36.783" style="fill:white;stroke:black;stroke-width:0.72px;"/>
        </g>
        <g transform="matrix(1.21206,0,0,0.928307,13.0856,1.27478)">
            <rect x="46.699" y="34.411" width="4.125" height="7.777" style="fill:white;stroke:black;stroke-width:0.93px;"/>
        </g>
        <g transform="matrix(1,0,0,1,0,-13.1718)">
            <path d="M72.187,49.691L74.687,49.691" style="fill:none;stroke:black;stroke-width:0.5px;"/>
        </g>
        <g transform="matrix(1,0,0,1,0,-10.4918)">
            <path d="M72.187,49.691L74.687,49.691" style="fill:none;stroke:black;stroke-width:0.5px;"/>
        </g>
        <g transform="matrix(1,0,0,1,0,-7.81184)">
            <path d="M72.187,49.691L74.687,49.691" style="fill:none;stroke:black;stroke-width:0.5px;"/>
        </g>
        <g transform="matrix(1,0,0,1,0,-5.13185)">
            <path d="M72.187,49.691L74.687,49.691" style="fill:none;stroke:black;stroke-width:0.5px;"/>
        </g>
        <g transform="matrix(1,0,0,1,0,-2.45185)">
            <path d="M72.187,49.691L74.687,49.691" style="fill:none;stroke:black;stroke-width:0.5px;"/>
        </g>
    </g>
    <g id="app" transform="matrix(1,0,0,1,16.0048,0.538544)">
        <g transform="matrix(2.46661,0,0,1,-76.6224,25.8905)">
            <rect x="36.357" y="29.52" width="28.33" height="38.369" style="fill:white;stroke:black;stroke-width:0.27px;"/>
        </g>
        <rect x="13.056" y="55.41" width="69.878" height="3.864" style="fill:rgb(162,251,255);stroke:black;stroke-width:0.5px;"/>
        <g transform="matrix(1,0,0,1,17.1918,2.36637)">
            <circle cx="3.926" cy="54.976" r="0.843" style="fill:rgb(162,255,203);stroke:black;stroke-width:0.5px;"/>
        </g>
        <g transform="matrix(1,0,0,1,14.1679,2.36637)">
            <circle cx="3.926" cy="54.976" r="0.843" style="fill:rgb(255,243,162);stroke:black;stroke-width:0.5px;"/>
        </g>
        <g transform="matrix(1,0,0,1,11.2204,2.36637)">
            <circle cx="3.926" cy="54.976" r="0.843" style="fill:rgb(255,162,177);stroke:black;stroke-width:0.5px;"/>
        </g>
        <path d="M15.989,65.347L28.241,65.347" style="fill:none;stroke:black;stroke-width:0.5px;"/>
        <g transform="matrix(1,0,0,1,0,4.96341)">
            <path d="M15.989,65.347L28.241,65.347" style="fill:none;stroke:black;stroke-width:0.5px;"/>
        </g>
        <g transform="matrix(1,0,0,1,-0.479437,-0.290479)">
            <rect x="31.175" y="64.237" width="12.938" height="2.801" style="fill:none;stroke:black;stroke-width:0.5px;"/>
        </g>
        <g transform="matrix(0.5,0,0,1,57.2973,24.459)">
            <rect x="31.175" y="64.237" width="12.938" height="2.801" style="fill:rgb(64,153,255);"/>
        </g>
        <g transform="matrix(0.5,0,0,1,47.9764,24.459)">
            <rect x="31.175" y="64.237" width="12.938" height="2.801"/>
        </g>
        <g transform="matrix(1,0,0,1,-0.479437,4.67293)">
            <rect x="31.175" y="64.237" width="12.938" height="2.801" style="fill:none;stroke:black;stroke-width:0.5px;"/>
        </g>
        <g transform="matrix(1,0,0,1,0,10.6488)">
            <path d="M15.989,65.347L28.241,65.347" style="fill:none;stroke:black;stroke-width:0.5px;"/>
        </g>
        <g transform="matrix(1,0,0,1,0,15.6122)">
            <path d="M15.989,65.347L28.241,65.347" style="fill:none;stroke:black;stroke-width:0.5px;"/>
        </g>
        <g transform="matrix(1,0,0,1,-0.479437,10.3583)">
            <rect x="31.175" y="64.237" width="12.938" height="2.801" style="fill:none;stroke:black;stroke-width:0.5px;"/>
        </g>
        <g transform="matrix(1,0,0,1,-0.479437,15.3217)">
            <rect x="31.175" y="64.237" width="12.938" height="2.801" style="fill:none;stroke:black;stroke-width:0.5px;"/>
        </g>
        <g transform="matrix(1,0,0,1,-1.48688,0)">
            <rect x="53.637" y="66.747" width="24.3" height="14.212" style="fill:none;stroke:black;stroke-width:0.5px;"/>
        </g>
        <path d="M54.243,78.139L58.643,74.595L64.3,77.714L72.885,71.71" style="fill:none;stroke:black;stroke-width:0.5px;"/>
    </g>
    <g id="arrows">
        <g transform="matrix(1,0,0,1,-1.78663,-1.05523)">
            <g transform="matrix(1,-0,-0,1,1.78663,1.05523)">
                <path d="M43.68,48.417L44.74,51.599L41.558,50.538L43.68,50.538L43.68,48.417Z"/>
                <path d="M31.794,38.653C31.794,38.653 40.587,47.445 43.68,50.538" style="fill:none;stroke:black;stroke-width:1px;"/>
            </g>
        </g>
        <g transform="matrix(1,0,0,0.755108,11.7327,12.4474)">
            <g transform="matrix(1,-0,-0,1.32431,-11.7327,-16.4842)">
                <path d="M65.5,48.599L64,51.599L62.5,48.599L64,50.099L65.5,48.599Z"/>
                <path d="M64,38.653L64,50.099" style="fill:none;stroke:black;stroke-width:1px;"/>
            </g>
        </g>
        <g transform="matrix(1,0,0,1,22.163,-1.04576)">
            <g transform="matrix(1,-0,-0,1,-22.163,1.04576)">
                <path d="M88.679,50.538L85.497,51.599L86.558,48.417L86.558,50.538L88.679,50.538Z"/>
                <path d="M98.434,38.662C98.434,38.662 89.649,47.447 86.558,50.538" style="fill:none;stroke:black;stroke-width:1px;"/>
            </g>
        </g>
    </g>
</svg>
