<?xml version="1.0" encoding="UTF-8" standalone="no"?>
<!DOCTYPE svg PUBLIC "-//W3C//DTD SVG 1.1//EN" "http://www.w3.org/Graphics/SVG/1.1/DTD/svg11.dtd">
<svg width="100%" height="100%" viewBox="0 0 128 96" version="1.1" xmlns="http://www.w3.org/2000/svg" xmlns:xlink="http://www.w3.org/1999/xlink" xml:space="preserve" xmlns:serif="http://www.serif.com/" style="fill-rule:evenodd;clip-rule:evenodd;stroke-linecap:round;stroke-linejoin:round;stroke-miterlimit:1.5;">
    <g id="lab">
        <g id="head" transform="matrix(1,0,0,1,9.43152,0.318167)">
            <g transform="matrix(0.666817,0,0,0.734181,-2.42539,-7.10488)">
                <path d="M17.172,27.158C18.34,21.292 22.597,16.938 27.663,16.938C32.728,16.938 36.985,21.292 38.153,27.158C38.257,27.129 38.363,27.114 38.471,27.114C39.546,27.114 40.419,28.592 40.419,30.412C40.419,32.232 39.546,33.709 38.471,33.709C38.363,33.709 38.257,33.694 38.153,33.666C36.985,39.532 32.728,43.886 27.663,43.886C22.597,43.886 18.34,39.532 17.172,33.666C17.069,33.694 16.962,33.709 16.854,33.709C15.779,33.709 14.906,32.232 14.906,30.412C14.906,28.592 15.779,27.114 16.854,27.114C16.962,27.114 17.069,27.129 17.172,27.158Z" style="fill:white;stroke:black;stroke-width:0.71px;"/>
            </g>
            <g id="hat" transform="matrix(0.734181,0,0,0.734181,-42.4799,-20.3321)">
                <path d="M69.267,41.94C69.607,37.873 72.517,34.376 76.655,33.179L82.708,33.179C86.845,34.376 89.756,37.873 90.096,41.94C91.118,42.176 91.704,42.449 91.704,42.74C91.704,43.624 86.317,44.341 79.681,44.341C73.046,44.341 67.659,43.624 67.659,42.74C67.659,42.449 68.244,42.176 69.267,41.94Z" style="fill:white;stroke:black;stroke-width:0.68px;"/>
                <g transform="matrix(-1.19317,0.525766,-0.155281,-0.352394,146.71,17.1894)">
                    <path d="M55.072,21.981L55.767,35.754L54.376,35.754L55.072,21.981Z" style="fill:white;stroke:black;stroke-width:0.28px;"/>
                </g>
                <g transform="matrix(1.19317,0.525766,0.155281,-0.352394,12.6672,17.1894)">
                    <path d="M55.072,21.981L55.767,35.754L54.376,35.754L55.072,21.981Z" style="fill:white;stroke:black;stroke-width:0.28px;"/>
                </g>
            </g>
        </g>
        <path d="M20.707,25.433C20.821,26.761 22.904,27.821 25.452,27.821C28,27.821 30.083,26.761 30.197,25.433L33.69,25.433C35.089,25.433 36.402,26.109 37.215,27.247C38.028,28.386 38.241,29.847 37.788,31.17C36.252,35.647 34.217,41.583 33.215,44.507C32.849,45.574 31.846,46.291 30.717,46.291C27.978,46.291 22.926,46.291 20.187,46.291C19.058,46.291 18.055,45.574 17.689,44.507C16.687,41.583 14.652,35.647 13.116,31.17C12.663,29.847 12.876,28.386 13.689,27.247C14.502,26.109 15.815,25.433 17.214,25.433L20.707,25.433Z" style="fill:white;stroke:black;stroke-width:0.5px;"/>
        <g transform="matrix(1,0,0,1,0.27988,1.52408)">
            <g transform="matrix(0.49715,0,0,0.49715,20.1699,2.12351)">
                <path d="M10.062,79.938L10.062,75.677L16.312,70.456L16.312,65.473L10.669,61.5" style="fill:none;stroke:black;stroke-width:1.01px;"/>
            </g>
            <g transform="matrix(0.49715,0,0,0.49715,18.6162,2.12351)">
                <path d="M10.062,79.938L16.312,79.938" style="fill:none;stroke:black;stroke-width:1.01px;"/>
            </g>
            <g transform="matrix(0.49715,0,0,0.49715,17.0624,-1.12937)">
                <path d="M10.062,79.938L16.312,79.938" style="fill:none;stroke:black;stroke-width:1.01px;"/>
            </g>
            <g transform="matrix(0.49715,0,0,0.49715,20.1699,2.12351)">
                <path d="M10.062,75.526L6.936,73.395" style="fill:none;stroke:black;stroke-width:1.01px;"/>
            </g>
            <g transform="matrix(0.422613,0.261831,-0.261831,0.422613,37.7494,3.60915)">
                <rect x="8.499" y="57.679" width="2.85" height="10.009" style="fill:white;stroke:black;stroke-width:1.01px;"/>
            </g>
            <g transform="matrix(0.189297,0.11728,-0.0986406,0.159213,28.4166,23.8249)">
                <rect x="8.499" y="57.679" width="2.85" height="10.009" style="fill:white;stroke:black;stroke-width:2.43px;"/>
            </g>
        </g>
    </g>
    <g id="engineer">
        <g id="head1" serif:id="head" transform="matrix(1,0,0,1,47.9795,0.318167)">
            <g transform="matrix(0.666817,0,0,0.734181,-2.42539,-7.10488)">
                <path d="M17.172,27.158C18.34,21.292 22.597,16.938 27.663,16.938C32.728,16.938 36.985,21.292 38.153,27.158C38.257,27.129 38.363,27.114 38.471,27.114C39.546,27.114 40.419,28.592 40.419,30.412C40.419,32.232 39.546,33.709 38.471,33.709C38.363,33.709 38.257,33.694 38.153,33.666C36.985,39.532 32.728,43.886 27.663,43.886C22.597,43.886 18.34,39.532 17.172,33.666C17.069,33.694 16.962,33.709 16.854,33.709C15.779,33.709 14.906,32.232 14.906,30.412C14.906,28.592 15.779,27.114 16.854,27.114C16.962,27.114 17.069,27.129 17.172,27.158Z" style="fill:white;stroke:black;stroke-width:0.71px;"/>
            </g>
            <g id="hat1" serif:id="hat" transform="matrix(0.734181,0,0,0.734181,-42.4799,-20.3321)">
                <path d="M69.267,41.94C69.607,37.873 72.517,34.376 76.655,33.179L82.708,33.179C86.845,34.376 89.756,37.873 90.096,41.94C91.118,42.176 91.704,42.449 91.704,42.74C91.704,43.624 86.317,44.341 79.681,44.341C73.046,44.341 67.659,43.624 67.659,42.74C67.659,42.449 68.244,42.176 69.267,41.94Z" style="fill:white;stroke:black;stroke-width:0.68px;"/>
                <g transform="matrix(-1.19317,0.525766,-0.155281,-0.352394,146.71,17.1894)">
                    <path d="M55.072,21.981L55.767,35.754L54.376,35.754L55.072,21.981Z" style="fill:white;stroke:black;stroke-width:0.28px;"/>
                </g>
                <g transform="matrix(1.19317,0.525766,0.155281,-0.352394,12.6672,17.1894)">
                    <path d="M55.072,21.981L55.767,35.754L54.376,35.754L55.072,21.981Z" style="fill:white;stroke:black;stroke-width:0.28px;"/>
                </g>
            </g>
        </g>
        <path d="M59.548,25.433L60.449,26.306L67.551,26.306L68.452,25.433L72.238,25.433C73.637,25.433 74.95,26.109 75.763,27.247C76.576,28.386 76.789,29.847 76.336,31.17C74.8,35.647 72.765,41.583 71.763,44.507C71.397,45.574 70.394,46.291 69.265,46.291C66.526,46.291 61.474,46.291 58.735,46.291C57.606,46.291 56.603,45.574 56.237,44.507C55.235,41.583 53.2,35.647 51.664,31.17C51.211,29.847 51.424,28.386 52.237,27.247C53.05,26.109 54.363,25.433 55.762,25.433L59.548,25.433Z" style="fill:white;stroke:black;stroke-width:0.5px;"/>
        <g transform="matrix(1,0,0,1,-1.93268e-12,0.541198)">
            <path d="M64.439,27.905L64.838,40.545C64.291,44.865 63.744,45.253 63.196,40.545L63.595,27.943L62.509,26.71L65.491,26.71L64.439,27.905Z" style="fill:white;stroke:black;stroke-width:0.3px;"/>
        </g>
        <g transform="matrix(1,0,0,1,4.02793,1.42228)">
            <path d="M68.478,30.754L68.478,28.543" style="fill:none;stroke:black;stroke-width:0.5px;"/>
        </g>
        <rect x="67.289" y="30.754" width="5.998" height="5.108" style="fill:white;stroke:black;stroke-width:0.3px;"/>
        <g transform="matrix(-1,1.22465e-16,-1.22465e-16,-1,140.575,62.931)">
            <path d="M70.287,30.754L73.286,32.177L67.289,32.177L70.287,30.754Z" style="fill:white;stroke:black;stroke-width:0.3px;"/>
        </g>
    </g>
    <g id="field">
        <g id="head2" serif:id="head" transform="matrix(1,0,0,1,86.5275,0.318167)">
            <g transform="matrix(0.666817,0,0,0.734181,-2.42539,-7.10488)">
                <path d="M17.172,27.158C18.34,21.292 22.597,16.938 27.663,16.938C32.728,16.938 36.985,21.292 38.153,27.158C38.257,27.129 38.363,27.114 38.471,27.114C39.546,27.114 40.419,28.592 40.419,30.412C40.419,32.232 39.546,33.709 38.471,33.709C38.363,33.709 38.257,33.694 38.153,33.666C36.985,39.532 32.728,43.886 27.663,43.886C22.597,43.886 18.34,39.532 17.172,33.666C17.069,33.694 16.962,33.709 16.854,33.709C15.779,33.709 14.906,32.232 14.906,30.412C14.906,28.592 15.779,27.114 16.854,27.114C16.962,27.114 17.069,27.129 17.172,27.158Z" style="fill:white;stroke:black;stroke-width:0.71px;"/>
            </g>
            <g id="hat2" serif:id="hat" transform="matrix(0.734181,0,0,0.734181,-42.4799,-20.3321)">
                <path d="M69.267,41.94C69.607,37.873 72.517,34.376 76.655,33.179L82.708,33.179C86.845,34.376 89.756,37.873 90.096,41.94C91.118,42.176 91.704,42.449 91.704,42.74C91.704,43.624 86.317,44.341 79.681,44.341C73.046,44.341 67.659,43.624 67.659,42.74C67.659,42.449 68.244,42.176 69.267,41.94Z" style="fill:white;stroke:black;stroke-width:0.68px;"/>
                <g transform="matrix(-1.19317,0.525766,-0.155281,-0.352394,146.71,17.1894)">
                    <path d="M55.072,21.981L55.767,35.754L54.376,35.754L55.072,21.981Z" style="fill:white;stroke:black;stroke-width:0.28px;"/>
                </g>
                <g transform="matrix(1.19317,0.525766,0.155281,-0.352394,12.6672,17.1894)">
                    <path d="M55.072,21.981L55.767,35.754L54.376,35.754L55.072,21.981Z" style="fill:white;stroke:black;stroke-width:0.28px;"/>
                </g>
            </g>
        </g>
        <path d="M98.506,25.433L100.527,28.79L104.569,28.79L106.59,25.433L110.786,25.433C112.185,25.433 113.498,26.109 114.311,27.247C115.124,28.386 115.337,29.847 114.884,31.17C113.348,35.647 111.313,41.583 110.311,44.507C109.945,45.574 108.942,46.291 107.813,46.291C105.074,46.291 100.022,46.291 97.283,46.291C96.154,46.291 95.151,45.574 94.785,44.507C93.783,41.583 91.748,35.647 90.212,31.17C89.759,29.847 89.972,28.386 90.785,27.247C91.598,26.109 92.911,25.433 94.31,25.433L98.506,25.433Z" style="fill:white;stroke:black;stroke-width:0.5px;"/>
        <g transform="matrix(1,0,0,1,-0.132124,0)">
            <path d="M105.566,32.464C105.566,32.061 105.239,31.734 104.837,31.734L100.524,31.734C100.121,31.734 99.795,32.061 99.795,32.464L99.795,42.659C99.795,43.062 100.121,43.389 100.524,43.389L104.837,43.389C105.239,43.389 105.566,43.062 105.566,42.659L105.566,32.464Z" style="fill:white;stroke:black;stroke-width:0.4px;"/>
        </g>
        <g transform="matrix(0.802518,0,0,0.778083,20.1454,7.66347)">
            <path d="M105.566,32.592C105.566,32.119 105.193,31.734 104.734,31.734L100.626,31.734C100.167,31.734 99.795,32.119 99.795,32.592L99.795,42.531C99.795,43.004 100.167,43.389 100.626,43.389L104.734,43.389C105.193,43.389 105.566,43.004 105.566,42.531L105.566,32.592Z" style="fill:white;stroke:black;stroke-width:0.25px;"/>
        </g>
        <g transform="matrix(1,0,0,1,0.0141413,0.156623)">
            <circle cx="102.534" cy="42.153" r="0.504" style="fill:white;stroke:black;stroke-width:0.2px;"/>
        </g>
    </g>
    <g id="app" transform="matrix(1,0,0,1,16.0048,0.538544)">
        <g transform="matrix(2.46661,0,0,1,-76.6224,25.8905)">
            <rect x="36.357" y="29.52" width="28.33" height="38.369" style="fill:white;stroke:black;stroke-width:0.27px;"/>
        </g>
        <rect x="13.056" y="55.41" width="69.878" height="3.864" style="fill:rgb(162,251,255);stroke:black;stroke-width:0.5px;"/>
        <g transform="matrix(1,0,0,1,17.1918,2.36637)">
            <circle cx="3.926" cy="54.976" r="0.843" style="fill:rgb(162,255,203);stroke:black;stroke-width:0.5px;"/>
        </g>
        <g transform="matrix(1,0,0,1,14.1679,2.36637)">
            <circle cx="3.926" cy="54.976" r="0.843" style="fill:rgb(255,243,162);stroke:black;stroke-width:0.5px;"/>
        </g>
        <g transform="matrix(1,0,0,1,11.2204,2.36637)">
            <circle cx="3.926" cy="54.976" r="0.843" style="fill:rgb(255,162,177);stroke:black;stroke-width:0.5px;"/>
        </g>
        <path d="M15.989,65.347L28.241,65.347" style="fill:none;stroke:black;stroke-width:0.5px;"/>
        <g transform="matrix(1,0,0,1,0,4.96341)">
            <path d="M15.989,65.347L28.241,65.347" style="fill:none;stroke:black;stroke-width:0.5px;"/>
        </g>
        <g transform="matrix(1,0,0,1,-0.479437,-0.290479)">
            <rect x="31.175" y="64.237" width="12.938" height="2.801" style="fill:none;stroke:black;stroke-width:0.5px;"/>
        </g>
        <g transform="matrix(0.5,0,0,1,57.2973,24.459)">
            <rect x="31.175" y="64.237" width="12.938" height="2.801" style="fill:rgb(64,153,255);"/>
        </g>
        <g transform="matrix(0.5,0,0,1,47.9764,24.459)">
            <rect x="31.175" y="64.237" width="12.938" height="2.801"/>
        </g>
        <g transform="matrix(1,0,0,1,-0.479437,4.67293)">
            <rect x="31.175" y="64.237" width="12.938" height="2.801" style="fill:none;stroke:black;stroke-width:0.5px;"/>
        </g>
        <g transform="matrix(1,0,0,1,0,10.6488)">
            <path d="M15.989,65.347L28.241,65.347" style="fill:none;stroke:black;stroke-width:0.5px;"/>
        </g>
        <g transform="matrix(1,0,0,1,0,15.6122)">
            <path d="M15.989,65.347L28.241,65.347" style="fill:none;stroke:black;stroke-width:0.5px;"/>
        </g>
        <g transform="matrix(1,0,0,1,-0.479437,10.3583)">
            <rect x="31.175" y="64.237" width="12.938" height="2.801" style="fill:none;stroke:black;stroke-width:0.5px;"/>
        </g>
        <g transform="matrix(1,0,0,1,-0.479437,15.3217)">
            <rect x="31.175" y="64.237" width="12.938" height="2.801" style="fill:none;stroke:black;stroke-width:0.5px;"/>
        </g>
        <g transform="matrix(1,0,0,1,-1.48688,0)">
            <rect x="53.637" y="66.747" width="24.3" height="14.212" style="fill:none;stroke:black;stroke-width:0.5px;"/>
        </g>
        <path d="M54.243,78.139L58.643,74.595L64.3,77.714L72.885,71.71" style="fill:none;stroke:black;stroke-width:0.5px;"/>
    </g>
    <g id="arrows" transform="matrix(1,0,0,0.500287,-1.14073,27.7592)">
        <g transform="matrix(1,0,0,0.755108,12.8467,14.2573)">
            <g transform="matrix(1,-0,-0,2.64711,-11.706,-92.3629)">
                <path d="M65.473,51.479L63.973,54.479L62.473,51.479L63.973,52.979L65.473,51.479Z"/>
                <path d="M63.973,48.002L63.973,52.979" style="fill:none;stroke:black;stroke-width:1px;"/>
            </g>
        </g>
        <g transform="matrix(0.881794,-0.598105,0.191476,0.905677,18.8646,43.0645)">
            <g transform="matrix(0.991824,0.654995,-0.419137,1.93023,3.08615,-106.777)">
                <path d="M86.785,53.01L83.652,54.206L84.575,50.981L84.666,53.101L86.785,53.01Z"/>
                <path d="M92.582,44.474C92.582,44.474 87.006,50.551 84.666,53.101" style="fill:none;stroke:black;stroke-width:1px;"/>
            </g>
        </g>
        <g transform="matrix(-0.881794,-0.598105,-0.191476,0.905677,111.191,43.0645)">
            <g transform="matrix(-0.991824,-0.654995,-0.419137,1.93023,129.816,-23.0852)">
                <path d="M43.2,50.981L44.123,54.206L40.989,53.01L43.108,53.101L43.2,50.981Z"/>
                <path d="M35.192,44.474C35.192,44.474 40.769,50.551 43.108,53.101" style="fill:none;stroke:black;stroke-width:1px;"/>
            </g>
        </g>
    </g>
</svg>
