<?xml version="1.0" encoding="UTF-8" standalone="no"?><!DOCTYPE svg PUBLIC "-//W3C//DTD SVG 1.1//EN" "http://www.w3.org/Graphics/SVG/1.1/DTD/svg11.dtd"><svg width="100%" height="100%" viewBox="0 0 134 134" version="1.1" xmlns="http://www.w3.org/2000/svg" xmlns:xlink="http://www.w3.org/1999/xlink" xml:space="preserve" xmlns:serif="http://www.serif.com/" style="fill-rule:evenodd;clip-rule:evenodd;stroke-linecap:round;stroke-linejoin:round;stroke-miterlimit:1.5;"><circle cx="66.667" cy="66.667" r="59.941" style="fill:none;stroke:#000;stroke-width:3.33px;"/><ellipse cx="66.667" cy="65.937" rx="39.595" ry="59.211" style="fill:none;stroke:#000;stroke-width:3.33px;"/><ellipse cx="66.667" cy="65.937" rx="20.221" ry="57.681" style="fill:none;stroke:#000;stroke-width:3.33px;"/><path d="M12.443,41.108l108.475,-0" style="fill:none;stroke:#000;stroke-width:3.33px;"/><path d="M12.443,91.804l108.475,0" style="fill:none;stroke:#000;stroke-width:3.33px;"/><path d="M58.119,79.259l-6.008,-25.185l3.073,0l3.444,16.509c0.371,1.73 0.69,3.448 0.958,5.154c0.576,-2.691 0.916,-4.243 1.019,-4.655l4.309,-17.008l3.614,0l3.243,12.747c0.813,3.161 1.4,6.133 1.76,8.916c0.289,-1.592 0.664,-3.418 1.128,-5.48l3.552,-16.183l3.011,0l-6.208,25.185l-2.888,-0l-4.772,-19.189c-0.402,-1.603 -0.638,-2.588 -0.71,-2.955c-0.237,1.157 -0.459,2.142 -0.665,2.955l-4.803,19.189l-3.057,-0Z" style="fill-rule:nonzero;"/></svg>